# AST/ASF file generated using VICON BodyLanguage
# -----------------------------------------------
:version 1.10
:name VICON
:units
  mass 1.0
  length 0.45
  angle deg
:documentation
   .ast/.asf automatically generated from VICON data using
   VICON BodyBuilder and BodyLanguage model FoxedUp or BRILLIANT.MOD
:root
   order TX TY TZ RX RY RZ
   axis XYZ
   position 0 0 0  
   orientation 0 0 0 
:bonedata
  begin
     id 1 
     name lhipjoint
     direction 0.584852 -0.759097 0.285867 
     length 2.43633 
     axis 0 0 0  XYZ
  end
  begin
     id 2 
     name lfemur
     direction 0.34202 -0.939693 0  
     length 7.14704  
     axis 0 0 20  XYZ
    dof rx ry rz
    limits (-160.0 20.0)
           (-70.0 70.0)
           (-60.0 70.0)
  end
  begin
     id 3 
     name ltibia
     direction 0.342022 -0.939692 0   
     length 7.68483   
     axis 0 0 20   XYZ
    dof rx
    limits (-10.0 170.0)
  end
  begin
     id 4 
     name lfoot
     direction 0.0999605 -0.274639 0.956337   
     length 2.40452   
     axis -90 7.62852e-016 20   XYZ
    dof rx rz
    limits (-45.0 90.0)
           (-70.0 20.0)
  end
  begin
     id 5 
     name ltoes
     direction 1.53468e-011 -4.21881e-011 1   
     length 1.19837   
     axis -90 7.62852e-016 20   XYZ
    dof rx
    limits (-90.0 20.0)
  end
  begin
     id 6 
     name rhipjoint
     direction -0.569886 -0.769002 0.289597   
     length 2.40495  
     axis 0 0 0  XYZ 
  end
  begin
     id 7 
     name rfemur
     direction -0.34202 -0.939693 0   
     length 7.45086   
     axis 0 0 -20   XYZ
    dof rx ry rz
    limits (-160.0 20.0)
           (-70.0 70.0)
           (-70.0 60.0)
  end
  begin
     id 8 
     name rtibia
     direction -0.34202 -0.939693 0   
     length 7.76831   
     axis 0 0 -20   XYZ
    dof rx
    limits (-10.0 170.0)
 end
 begin
     id 9 
     name rfoot
     direction -0.0798572 -0.219406 0.97236   
     length 2.35911  
     axis -90 -7.62852e-016 -20   XYZ
    dof rx rz
    limits (-45.0 90.0)
           (-20.0 70.0)
  end
  begin
     id 10 
     name rtoes
     direction -1.53469e-011 -4.21728e-011 1   
     length 1.18261   
     axis -90 -7.62852e-016 -20   XYZ
    dof rx
    limits (-90.0 20.0)
  end
  begin
     id 11 
     name lowerback
     direction 0.0242088 0.999437 0.0232389   
     length 2.1561   
     axis 0 0 0   XYZ
    dof rx ry rz
    limits (-20.0 45.0)
           (-30.0 30.0)
           (-30.0 30.0)
  end
  begin
     id 12 
     name upperback
     direction -0.0356893 0.999013 -0.0264323   
     length 2.14431   
     axis 0 0 0   XYZ
    dof rx ry rz
    limits (-20.0 45.0)
           (-30.0 30.0)
           (-30.0 30.0)
  end
  begin
     id 13 
     name thorax
     direction -0.0472163 0.998194 -0.0371284   
     length 2.16169   
     axis 0 0 0   XYZ
    dof rx ry rz
    limits (-20.0 45.0)
           (-30.0 30.0)
           (-30.0 30.0)
  end
  begin
     id 14 
     name lowerneck
     direction 0.00863244 0.999921 0.00911972   
     length 1.58651   
     axis 0 0 0   XYZ
    dof rx ry rz
    limits (-20.0 45.0)
           (-30.0 30.0)
           (-30.0 30.0)
  end
  begin
     id 15 
     name upperneck
     direction 0.149523 0.979068 -0.138086   
     length 1.57486   
     axis 0 0 0   XYZ
    dof rx ry rz
    limits (-20.0 45.0)
           (-30.0 30.0)
           (-30.0 30.0)
  end
  begin
     id 16
     name head
     direction 0.0445219 0.997708 -0.0509576  
     length 1.6019  
     axis 0 0 0   XYZ
    dof rx ry rz
    limits (-20.0 45.0)
           (-30.0 30.0)
           (-30.0 30.0)
  end
  begin
     id 17 
     name lclavicle
     direction 0.911271 0.381667 -0.154644  
     length 3.80848  
     axis 0 0 0   XYZ
    dof ry rz
    limits (-20.0 10.0)
           (0.0 20.0)
  end
  begin
     id 18 
     name lhumerus
     direction 1 -4.49003e-011 2.1308e-027   
     length 5.19069   
     axis 180 -30 -90   XYZ
    dof rx ry rz
    limits (-60.0 90.0)
           (-90.0 90.0)
           (-90.0 90.0)
  end
  begin
     id 19
     name lradius
     direction 1 -4.48914e-011 4.01554e-027   
     length 3.30016   
     axis 180 -30 -90   XYZ
    dof rx
    limits (-10.0 170.0)
  end
  begin
     id 20
     name lwrist
     direction 1 -4.49003e-011 1.1934e-026   
     length 1.65008   
     axis -8.46377e-015 90 90   XYZ
    dof ry
    limits (-180.0 0.0)
 end
  begin
     id 21 
     name lhand
     direction 1 -4.49034e-011 2.38659e-026   
     length 0.707698   
     axis -1.52313e-014 90 90   XYZ
    dof rx rz
    limits (-90.0 90.0)
           (-45.0 45.0)
  end
  begin
     id 22 
     name lfingers
     direction 1 -4.48691e-011 4.77775e-026   
     length 0.570564   
     axis -3.04623e-014 90 90   XYZ
    dof rx
    limits (0.0 90.0)
  end
  begin
     id 23
     name lthumb
     direction 0.707107 -6.34832e-011 0.707107   
     length 0.819219   
     axis -90 45 -1.62303e-014   XYZ
    dof rx rz
    limits (-45.0 45.0)
           (-45.0 45.0)
  end
  begin
     id 24 
     name rclavicle
     direction -0.815579 0.573708 -0.0754329   
     length 3.54371  
     axis 0 0 0   XYZ 
    dof ry rz
    limits (-10.0 20.0)
           (-20.0 0.0)
  end
  begin
     id 25 
     name rhumerus
     direction -1 -4.48956e-011 3.05351e-028  
     length 5.23924   
     axis 180 30 90   XYZ
    dof rx ry rz
    limits (-90.0 60.0)
           (-90.0 90.0)
           (-90.0 90.0)
  end
  begin
     id 26 
     name rradius
     direction -1 -4.49013e-011 3.53849e-027   
     length 3.32953   
     axis 180 30 90   XYZ
    dof rx
    limits (-10.0 170.0)
  end
  begin
     id 27 
     name rwrist
     direction -1 -4.48901e-011 1.19374e-026   
     length 1.66477   
     axis -8.46377e-015 -90 -90   XYZ
    dof ry
    limits (-180.0 0.0)
  end
  begin
     id 28
     name rhand
     direction -1 -4.48877e-011 2.38764e-026   
     length 0.607414   
     axis -1.52313e-014 -90 -90   XYZ
    dof rx rz
    limits (-90.0 90.0)
           (-45.0 45.0)
  end
  begin
     id 29
     name rfingers
     direction -1 -4.48882e-011 4.77521e-026   
     length 0.489712   
     axis -3.04623e-014 -90 -90   XYZ
    dof rx
    limits (0.0 90.0)
  end
  begin
     id 30
     name rthumb
     direction -0.707107 -6.34974e-011 0.707107   
     length 0.703132   
     axis -90 -45 1.62303e-014   XYZ
    dof rx rz
    limits (-45.0 45.0)
           (-45.0 45.0)
  end
:hierarchy
  begin
    root lhipjoint rhipjoint lowerback
    lhipjoint lfemur
    lfemur ltibia
    ltibia lfoot
    lfoot ltoes
    rhipjoint rfemur
    rfemur rtibia
    rtibia rfoot
    rfoot rtoes
    lowerback upperback
    upperback thorax
    thorax lowerneck lclavicle rclavicle
    lowerneck upperneck
    upperneck head
    lclavicle lhumerus
    lhumerus lradius
    lradius lwrist
    lwrist lhand lthumb
    lhand lfingers
    rclavicle rhumerus
    rhumerus rradius
    rradius rwrist
    rwrist rhand rthumb
    rhand rfingers
  end

#!OML:ASF E:\VariousWalksJay\Project 1\Capture day 1\Session 1\Actor2.ASF
:FULLY-SPECIFIED
:DEGREES
156
root 29.1791 15.35 -28.6051 14.4284 -48.9975 -2.46293
lowerback 35.084 -2.06424 2.31875
upperback 19.6241 -3.30123 0.0543498
thorax 3.79366 -1.99809 -0.294467
lowerneck -3.5792 3.16726 5.53389
upperneck -16.328 3.3104 -6.7751
head -4.05827 1.55883 -3.07836
rclavicle 2.3059e-014 -1.00784e-013
rhumerus -11.3002 30.7465 -71.8523
rradius 104.808
rwrist 15.3446
rhand -34.2786 -11.6171
rfingers 7.12502
rthumb -7.44846 -41.466
lclavicle 2.3059e-014 -1.00784e-013
lhumerus 55.8157 -11.771 37.1854
lradius 72.6731
lwrist 64.9113
lhand -37.6534 15.872
lfingers 7.12502
lthumb -10.705 45.5793
rfemur -54.8976 1.44375 17.0475
rtibia 74.1833
rfoot -27.224 -12.3215
rtoes -19.4868
lfemur -58.9979 11.4881 -30.7026
ltibia 67.5183
lfoot -26.5406 19.0892
ltoes 2.55949
157
root 29.1923 15.3424 -28.5773 14.4412 -49.0551 -2.41347
lowerback 35.0595 -1.96651 2.20529
upperback 19.6868 -3.2218 0.0945813
thorax 3.87889 -1.97272 -0.218598
lowerneck -3.33528 3.11705 5.5294
upperneck -16.4531 3.25377 -6.74717
head -4.1406 1.5334 -3.07481
rclavicle -5.32743e-014 1.72943e-014
rhumerus -10.7621 30.5618 -71.615
rradius 104.657
rwrist 15.3363
rhand -34.2237 -11.6402
rfingers 7.12502
rthumb -7.39547 -41.4909
lclavicle -5.32743e-014 1.72943e-014
lhumerus 56.1429 -11.5469 37.2104
lradius 72.41
lwrist 64.9448
lhand -37.5783 15.9139
lfingers 7.12502
lthumb -10.6325 45.6249
rfemur -55.2536 1.43344 16.8566
rtibia 74.6744
rfoot -26.738 -12.1772
rtoes -19.9799
lfemur -59.0476 11.5274 -30.9011
ltibia 67.567
lfoot -26.6543 19.0642
ltoes 2.69942
158
root 29.2065 15.3353 -28.5496 14.4693 -49.1174 -2.37895
lowerback 35.0276 -1.87184 2.10248
upperback 19.747 -3.14309 0.129759
thorax 3.96281 -1.94646 -0.15332
lowerneck -3.09282 3.06825 5.52816
upperneck -16.5675 3.19931 -6.72164
head -4.2193 1.50903 -3.07223
rclavicle 3.26007e-014 4.17448e-015
rhumerus -10.2638 30.3903 -71.4193
rradius 104.522
rwrist 15.3402
rhand -34.1755 -11.6375
rfingers 7.12502
rthumb -7.34893 -41.4899
lclavicle 3.26007e-014 4.17448e-015
lhumerus 56.4616 -11.3254 37.2378
lradius 72.1514
lwrist 64.9663
lhand -37.4789 15.9816
lfingers 7.12502
lthumb -10.5366 45.6975
rfemur -55.6836 1.43737 16.6643
rtibia 75.2484
rfoot -26.1003 -12.0053
rtoes -20.5278
lfemur -59.1014 11.5767 -31.0961
ltibia 67.6065
lfoot -26.7644 19.0372
ltoes 2.8335
159
root 29.2216 15.3294 -28.5215 14.5018 -49.1898 -2.35867
lowerback 34.9987 -1.77966 2.01192
upperback 19.8067 -3.06433 0.157157
thorax 4.04427 -1.9188 -0.102274
lowerneck -2.85898 3.0202 5.542
upperneck -16.6659 3.14487 -6.70781
head -4.29126 1.4843 -3.07522
rclavicle 6.12257e-014 -1.82882e-014
rhumerus -9.83386 30.2283 -71.2679
rradius 104.429
rwrist 15.3543
rhand -34.1364 -11.6414
rfingers 7.12502
rthumb -7.31127 -41.4951
lclavicle 6.12257e-014 -1.82882e-014
lhumerus 56.7774 -11.1049 37.2557
lradius 71.8997
lwrist 64.9829
lhand -37.3679 16.0551
lfingers 7.12502
lthumb -10.4296 45.7764
rfemur -56.1878 1.45731 16.4647
rtibia 75.9159
rfoot -25.2894 -11.7882
rtoes -21.0632
lfemur -59.1427 11.6362 -31.2853
ltibia 67.6331
lfoot -26.8769 19.0085
ltoes 2.97825
160
root 29.2375 15.3249 -28.4925 14.526 -49.2754 -2.34726
lowerback 34.9819 -1.69698 1.93044
upperback 19.8643 -2.99488 0.172241
thorax 4.11804 -1.89442 -0.065679
lowerneck -2.62108 2.97595 5.55477
upperneck -16.7519 3.09563 -6.70142
head -4.35973 1.46285 -3.08018
rclavicle 7.95139e-015 5.50634e-014
rhumerus -9.48087 30.0949 -71.1579
rradius 104.392
rwrist 15.3773
rhand -34.0759 -11.5783
rfingers 7.12502
rthumb -7.25288 -41.434
lclavicle 7.95139e-015 5.50634e-014
lhumerus 57.0672 -10.8807 37.2218
lradius 71.6785
lwrist 65.0147
lhand -37.2847 16.1171
lfingers 7.12502
lthumb -10.3493 45.8424
rfemur -56.7685 1.49322 16.2498
rtibia 76.6852
rfoot -24.2836 -11.5135
rtoes -21.5115
lfemur -59.1573 11.7066 -31.4706
ltibia 67.6416
lfoot -26.9871 18.9791
ltoes 3.12538
161
root 29.2539 15.3214 -28.4629 14.5389 -49.3831 -2.34533
lowerback 34.9833 -1.61623 1.84792
upperback 19.9201 -2.92859 0.176804
thorax 4.18298 -1.87147 -0.037934
lowerneck -2.37844 2.93366 5.56308
upperneck -16.8298 3.04909 -6.69973
head -4.42644 1.44343 -3.08576
rclavicle 7.79236e-014 3.37934e-015
rhumerus -9.19067 29.9884 -71.0786
rradius 104.402
rwrist 15.4001
rhand -34.0136 -11.5177
rfingers 7.12502
rthumb -7.19269 -41.3755
lclavicle 7.79236e-014 3.37934e-015
lhumerus 57.3285 -10.6486 37.1294
lradius 71.5013
lwrist 65.0889
lhand -37.2044 16.2015
lfingers 7.12502
lthumb -10.2718 45.9307
rfemur -57.4365 1.551 16.0195
rtibia 77.5632
rfoot -23.0687 -11.1776
rtoes -21.7454
lfemur -59.1464 11.8034 -31.6537
ltibia 67.6372
lfoot -27.1033 18.941
ltoes 3.27829
162
root 29.2708 15.3196 -28.4329 14.5347 -49.5112 -2.34032
lowerback 34.9956 -1.53315 1.75858
upperback 19.9729 -2.8616 0.172855
thorax 4.24056 -1.84847 -0.0152047
lowerneck -2.12399 2.8883 5.56919
upperneck -16.9019 2.99858 -6.70247
head -4.49364 1.4227 -3.09227
rclavicle -1.11319e-014 6.97734e-014
rhumerus -8.95109 29.8975 -71.0136
rradius 104.451
rwrist 15.4108
rhand -33.9185 -11.4055
rfingers 7.12502
rthumb -7.10088 -41.2664
lclavicle -1.11319e-014 6.97734e-014
lhumerus 57.5689 -10.4171 36.9939
lradius 71.3614
lwrist 65.1906
lhand -37.1999 16.2368
lfingers 7.12502
lthumb -10.2675 45.9662
rfemur -58.1992 1.62163 15.7699
rtibia 78.5412
rfoot -21.6341 -10.7977
rtoes -21.6297
lfemur -59.1084 11.9256 -31.843
ltibia 67.6131
lfoot -27.219 18.8939
ltoes 3.43201
